<svg width="1024" height="1024" viewBox="0 0 1024 1024" fill="none" xmlns="http://www.w3.org/2000/svg">
  <defs>
    <linearGradient id="bg" x1="104" y1="104" x2="920" y2="920" gradientUnits="userSpaceOnUse">
      <stop stop-color="#171923"/>
      <stop offset="1" stop-color="#243048"/>
    </linearGradient>
    <linearGradient id="card" x1="250" y1="186" x2="748" y2="814" gradientUnits="userSpaceOnUse">
      <stop stop-color="#FFFDF8"/>
      <stop offset="1" stop-color="#F2F6FF"/>
    </linearGradient>
    <filter id="shadow" x="166" y="130" width="692" height="764" filterUnits="userSpaceOnUse" color-interpolation-filters="sRGB">
      <feFlood flood-opacity="0" result="BackgroundImageFix"/>
      <feColorMatrix in="SourceAlpha" type="matrix" values="0 0 0 0 0 0 0 0 0 0 0 0 0 0 0 0 0 0 127 0" result="hardAlpha"/>
      <feOffset dy="26"/>
      <feGaussianBlur stdDeviation="28"/>
      <feColorMatrix type="matrix" values="0 0 0 0 0.0509804 0 0 0 0 0.0784314 0 0 0 0 0.14902 0 0 0 0.24 0"/>
      <feBlend mode="normal" in2="BackgroundImageFix" result="effect1_dropShadow_1_1"/>
      <feBlend mode="normal" in="SourceGraphic" in2="effect1_dropShadow_1_1" result="shape"/>
    </filter>
  </defs>

  <rect x="72" y="72" width="880" height="880" rx="216" fill="url(#bg)"/>
  <circle cx="808" cy="230" r="72" fill="#FF8A3D"/>
  <circle cx="232" cy="812" r="38" fill="#21C7A8"/>

  <g filter="url(#shadow)">
    <rect x="216" y="176" width="592" height="672" rx="150" fill="url(#card)"/>
    <rect x="216" y="176" width="118" height="672" rx="150" fill="#FF7A45"/>
    <rect x="292" y="250" width="70" height="94" rx="28" fill="#FFC19B"/>
    <rect x="410" y="286" width="262" height="34" rx="17" fill="#1F2937" fill-opacity="0.92"/>

    <circle cx="378" cy="450" r="46" fill="#19B394"/>
    <path d="M354 451L374 471L410 431" stroke="white" stroke-width="26" stroke-linecap="round" stroke-linejoin="round"/>
    <rect x="454" y="432" width="220" height="34" rx="17" fill="#475569"/>
    <rect x="454" y="484" width="172" height="26" rx="13" fill="#CBD5E1"/>

    <circle cx="378" cy="610" r="46" fill="#19B394"/>
    <path d="M354 611L374 631L410 591" stroke="white" stroke-width="26" stroke-linecap="round" stroke-linejoin="round"/>
    <rect x="454" y="592" width="186" height="34" rx="17" fill="#475569"/>
    <rect x="454" y="644" width="236" height="26" rx="13" fill="#CBD5E1"/>

    <rect x="318" y="738" width="388" height="30" rx="15" fill="#D7E1F2"/>
  </g>
</svg>
